<svg width="20" height="20" viewBox="0 0 20 20" fill="none" xmlns="http://www.w3.org/2000/svg">
<path d="M3.33337 15.8334V14.1667H5.00004V8.33335C5.00004 7.18058 5.34726 6.15974 6.04171 5.27085C6.73615 4.36808 7.63893 3.7778 8.75004 3.50002V2.91669C8.75004 2.56946 8.8681 2.2778 9.10421 2.04169C9.35421 1.79169 9.65282 1.66669 10 1.66669C10.3473 1.66669 10.6389 1.79169 10.875 2.04169C11.125 2.2778 11.25 2.56946 11.25 2.91669V3.50002C12.3612 3.7778 13.2639 4.36808 13.9584 5.27085C14.6528 6.15974 15 7.18058 15 8.33335V14.1667H16.6667V15.8334H3.33337ZM10 18.3334C9.54171 18.3334 9.14587 18.1736 8.81254 17.8542C8.4931 17.5209 8.33337 17.125 8.33337 16.6667H11.6667C11.6667 17.125 11.5 17.5209 11.1667 17.8542C10.8473 18.1736 10.4584 18.3334 10 18.3334ZM6.66671 14.1667H13.3334V8.33335C13.3334 7.41669 13.007 6.63196 12.3542 5.97919C11.7014 5.32641 10.9167 5.00002 10 5.00002C9.08337 5.00002 8.29865 5.32641 7.64587 5.97919C6.9931 6.63196 6.66671 7.41669 6.66671 8.33335V14.1667Z" fill="#434657"/>
</svg>
