<svg width="129" height="24" viewBox="0 0 129 24" fill="none" xmlns="http://www.w3.org/2000/svg">
<g clip-path="url(#clip0_281_153)">
<path d="M35.3097 22.1664C34.7847 22.2086 34.2631 22.0548 33.8549 21.7373C33.4614 21.3515 33.1427 20.9023 32.9135 20.4106C32.6551 19.9347 32.4402 19.4384 32.2712 18.9274L24.4815 0.390747L23.1545 0.390747L23.0257 0.624987C22.6401 1.60035 22.1266 2.73699 21.5708 3.98499C21.0996 5.07747 20.5439 6.20931 19.9448 7.45827L15.3649 17.1715L13.6956 20.5315C13.5645 20.9436 13.3294 21.3187 13.011 21.624C12.4182 21.8872 11.7803 22.0459 11.1282 22.0925L10.8262 22.1319V23.5719H11.2974C11.683 23.5719 12.1965 23.5325 13.009 23.4941C13.6513 23.4547 14.2926 23.4163 14.7205 23.4163H14.8091C15.4243 23.4103 16.0393 23.4359 16.6516 23.4931C17.4651 23.5325 18.0611 23.5709 18.492 23.5709H18.8343L18.9199 22.1309H18.5776C18.0641 22.0915 17.6362 22.0531 17.1681 21.9744C16.0555 21.8967 16.0978 21.4282 16.0978 21.2717C16.201 20.6597 16.4048 20.0672 16.7019 19.5159C17.1298 18.6183 17.6433 17.4864 18.3279 16.1203L27.359 16.1597L29.1994 20.6861C29.283 20.8711 29.3268 21.0702 29.3283 21.2717C29.32 21.3798 29.291 21.4856 29.2427 21.5837C29.2082 21.6545 29.1471 21.7103 29.0715 21.7402C28.7421 21.8794 28.3978 21.984 28.0446 22.0522C27.6328 22.1017 27.2183 22.1277 26.8032 22.1299H26.4075L26.4931 23.6131H26.8354C27.0066 23.6131 27.5633 23.6131 28.849 23.5354C30.0471 23.4576 30.6895 23.4576 31.0751 23.4576C31.3771 23.4576 32.0164 23.497 33.0434 23.5354C34.0703 23.6135 34.8422 23.6525 35.359 23.6525H35.7809L35.6953 22.1664H35.3097ZM26.5364 14.2839L19.0468 14.2445L22.8938 5.54211L26.5364 14.2839Z" fill="#0055A6"/>
<path d="M50.2054 15.4531H50.5477C51.4341 15.4347 52.3208 15.4738 53.2017 15.5702C53.7584 15.6873 53.844 15.8822 53.8863 15.9993V16.7798L53.9286 17.6381V18.456C53.9286 18.6902 53.9286 19.1193 53.8863 19.6262C53.8788 19.9813 53.836 20.3349 53.7584 20.6822C53.6302 21.0336 53.2023 21.3069 52.4747 21.5021C51.4515 21.7265 50.4034 21.8313 49.3536 21.8141C47.9353 21.8675 46.5214 21.6305 45.2072 21.119C43.893 20.6074 42.7091 19.8333 41.7351 18.8486C39.9127 16.7067 38.9965 13.9921 39.1668 11.2387C39.1126 10.0154 39.3242 8.79459 39.7881 7.6529C40.2521 6.51121 40.9585 5.47325 41.863 4.60415C42.808 3.75163 43.9245 3.09078 45.1451 2.6616C46.3656 2.23241 47.6648 2.0438 48.964 2.10719H49.0496C50.0577 2.10478 51.0628 2.21105 52.0458 2.42399C52.824 2.61517 53.5722 2.90375 54.2709 3.28223C54.7354 3.43567 55.139 3.72195 55.4267 4.10207C55.5665 4.43727 55.625 4.79827 55.5979 5.15807V6.90719H57.0074L57.0507 6.63359C57.1363 5.81375 57.2651 5.03327 57.393 4.17503C57.4816 3.51167 57.6527 2.80799 57.7806 2.18495L57.8662 1.87295L57.5239 1.75583C55.8628 1.28304 54.1771 0.892439 52.4737 0.585587C51.3258 0.421969 50.1678 0.330572 49.0073 0.311987H48.9217C45.3251 0.176593 41.7984 1.28535 38.9916 3.43391C37.7142 4.48216 36.7008 5.79128 36.0266 7.26408C35.3525 8.73688 35.0348 10.3356 35.0973 11.9414C35.054 15.7267 36.381 18.6931 38.9916 20.7609C41.6939 22.7772 45.0653 23.8018 48.4928 23.6486H48.5784C49.7568 23.6292 50.9312 23.5116 52.0881 23.2973C53.3319 23.0645 54.5608 22.7648 55.769 22.3997L56.1546 22.3219C56.4969 22.2441 56.8825 22.1299 57.2671 22.0483L57.5239 21.9705L57.395 18.8486C57.3991 18.6656 57.3846 18.4827 57.3517 18.3024V17.2464C57.339 16.7584 57.4115 16.2717 57.5662 15.8064C57.6536 15.6731 57.7726 15.5612 57.9135 15.4795C58.0543 15.3978 58.2133 15.3487 58.3776 15.336L58.6797 15.2976V14.0496H50.1218L50.2074 15.4541" fill="#0055A6"/>
<path d="M74.259 0.351306H74.2157C72.5231 0.281414 70.833 0.535498 69.245 1.09857C67.6571 1.66163 66.2036 2.52227 64.9702 3.62971C63.8202 4.69641 62.9146 5.97882 62.3105 7.39601C61.7064 8.81321 61.417 10.3344 61.4604 11.8636C61.3781 13.4416 61.6314 15.0192 62.2051 16.5014C62.7789 17.9835 63.6612 19.3397 64.799 20.4883C65.9055 21.5453 67.2299 22.3721 68.6885 22.9162C70.1471 23.4603 71.7083 23.7101 73.2733 23.6495H73.3156C75.0351 23.6864 76.7445 23.3906 78.3408 22.7802C79.9371 22.1697 81.3871 21.2571 82.6034 20.0975C83.828 18.9636 84.7975 17.6037 85.4529 16.1008C86.1082 14.5978 86.4356 12.9833 86.4151 11.3558C86.512 9.83731 86.2594 8.31702 85.675 6.90146C85.0906 5.4859 84.1886 4.20933 83.0323 3.16123C80.5816 1.20738 77.4497 0.204285 74.259 0.351306ZM74.3878 21.815H74.3455C72.995 21.8689 71.6542 21.5747 70.4642 20.9635C69.2741 20.3523 68.2788 19.4466 67.5828 18.3417C66.1334 16.0812 65.4317 13.4568 65.5692 10.8105C65.4489 8.56931 66.162 6.35953 67.5828 4.57051C68.3358 3.73931 69.2799 3.08503 70.3414 2.6586C71.403 2.23217 72.5534 2.0451 73.7032 2.11195H73.7465C74.9925 2.05409 76.2352 2.27857 77.3728 2.76699C78.5103 3.25541 79.5102 3.99388 80.2907 4.92187C81.7063 6.63451 82.3879 9.13147 82.3879 12.2927C82.4876 14.7461 81.7681 17.1662 80.333 19.2047C79.635 20.0637 78.7301 20.7494 77.695 21.2038C76.6598 21.6582 75.526 21.8679 74.3878 21.815Z" fill="#0055A6"/>
<path d="M98.6539 3.98115C98.6968 3.43139 98.7398 2.96451 98.7827 2.58051L103.705 2.73699C103.928 2.72945 104.149 2.78167 104.342 2.88771C104.428 2.92707 104.513 3.04419 104.513 3.51171V3.55107C104.556 3.70755 104.599 3.86307 104.642 4.09731L104.728 4.68291C104.809 5.09448 104.852 5.5121 104.857 5.93091V6.32451L106.356 6.16611V5.89251C106.355 5.61992 106.37 5.3475 106.401 5.07651C106.444 4.68291 106.444 4.41027 106.487 4.21251C106.481 3.09231 106.538 1.97262 106.658 0.858266V0.468506H106.272C105.631 0.468506 104.342 0.507866 101.992 0.546266C99.9385 0.585626 98.226 0.624026 96.899 0.624026C96.5134 0.624026 95.273 0.584666 93.0047 0.546266C90.6075 0.507866 88.8536 0.468506 87.5287 0.468506L87.143 0.468506V1.48323L87.1863 2.30307C87.2266 3.27843 87.2266 3.82851 87.2266 4.17603L87.2699 6.24483L88.768 6.12771V5.81475C88.7935 5.42112 88.8504 5.02991 88.9382 4.64451C88.9815 4.37091 89.0671 3.98115 89.1526 3.51267V3.43395C89.1526 3.12195 89.2382 2.92611 89.3671 2.84835C89.5669 2.71667 89.811 2.66086 90.0517 2.69187L94.9307 2.58051C94.9271 2.73771 94.9416 2.89481 94.974 3.04899L94.8028 19.5955C94.8028 21.1959 94.5461 21.7075 94.3749 21.8995C94.2461 22.056 93.7326 22.2903 92.0593 22.2903H91.5881L91.6737 23.8119H92.016C92.1449 23.8119 92.6201 23.7725 93.5141 23.7341L94.7978 23.6563C95.3546 23.6563 95.9536 23.617 96.5094 23.617C96.7238 23.617 97.3229 23.6563 98.6498 23.7341C99.7201 23.7735 100.576 23.8119 101.089 23.8119L101.475 23.8512V22.3219H101.089C99.42 22.3219 98.9066 22.0099 98.7354 21.8535C98.6498 21.7363 98.3931 21.2679 98.4334 19.6291L98.6116 5.61987C98.6116 5.15139 98.6106 4.56387 98.6539 3.98115Z" fill="#0055A6"/>
<path d="M128.914 22.5168H128.529C128.266 22.5376 128.001 22.5067 127.751 22.4262C127.5 22.3456 127.27 22.217 127.074 22.0483C126.672 21.6695 126.352 21.2186 126.133 20.7216C125.88 20.23 125.665 19.7214 125.49 19.2L117.701 0.429077L116.374 0.429077L116.245 0.663317C115.859 1.67804 115.389 2.80988 114.79 4.05884C114.233 5.34716 113.677 6.55484 113.164 7.61084L108.584 17.4451L106.958 20.8771C106.794 21.2838 106.547 21.6552 106.23 21.9696C105.624 22.196 104.992 22.3533 104.347 22.438L104.045 22.5158V23.9203H104.388C105.002 23.9237 105.616 23.8978 106.228 23.8425C107.127 23.7648 107.726 23.7648 108.025 23.7648C108.368 23.7648 108.967 23.7648 109.866 23.8425C110.636 23.9203 111.275 23.9596 111.706 23.9596H112.048L112.134 22.4764H111.792L110.382 22.3593C109.27 22.2028 109.312 21.7737 109.312 21.6182C109.415 21.0062 109.619 20.4137 109.916 19.8624C110.387 18.8064 110.901 17.638 111.542 16.3891L120.573 16.4284L122.413 20.9942C122.497 21.1792 122.541 21.3783 122.542 21.5798C122.555 21.7035 122.525 21.8277 122.456 21.9331C122.456 21.9724 122.37 22.0108 122.327 22.0502L122.284 22.0896C121.954 22.2287 121.61 22.3333 121.257 22.4016C120.829 22.4409 120.486 22.4793 120.101 22.4793H119.627L119.712 24.0009H120.055C120.397 24.0009 121.125 23.9616 122.068 23.8838C123.181 23.8444 123.909 23.806 124.294 23.806C124.596 23.806 125.236 23.8454 126.262 23.9232C127.418 23.9625 128.103 24.0009 128.616 24.0009H129L128.914 22.5168ZM119.752 14.5171L112.263 14.4777L116.16 5.61884L119.752 14.5171Z" fill="#0055A6"/>
<path d="M11.1705 1.71744C11.3417 1.60032 11.8128 1.32768 13.61 1.32768H14.0812L13.9523 0.03936L13.61 0.03936C13.1821 0.03936 12.1552 0.07872 10.7426 0.15648L9.03104 0.15648C8.64543 0.15648 7.96081 0.15648 6.84828 0.11712C5.99149 0.07776 5.22129 0.03936 4.49437 0.03936L4.1138 0L4.19435 1.32672H4.53666C6.33381 1.32672 6.80499 1.59936 6.93386 1.71648C6.97716 1.75584 7.23591 2.02848 7.23591 3.39456L6.97917 19.2346C7.01146 19.7724 6.86144 20.3059 6.55128 20.7562C6.40119 20.9969 6.17688 21.1877 5.90894 21.3024C5.90894 21.1459 5.95223 20.9904 5.95223 20.8339C5.95574 20.4761 5.88152 20.1215 5.73424 19.7924C5.58695 19.4632 5.3698 19.1668 5.09644 18.9216C4.53137 18.4051 3.78194 18.1122 2.99927 18.1018C2.23202 18.0927 1.491 18.3678 0.93216 18.8691C0.373319 19.3705 0.0402379 20.059 0.00301344 20.7898C0.0180886 21.4715 0.297787 22.1238 0.78801 22.6203C1.27823 23.1168 1.94415 23.4223 2.65695 23.4778V23.5171H3.08485C3.99208 23.5169 4.89159 23.3581 5.73878 23.0486C6.76629 22.6993 7.70129 22.14 8.4783 21.4099C9.33924 20.6115 9.98365 19.6254 10.356 18.5366C10.5615 17.6659 10.6628 16.7757 10.658 15.8832L10.8715 3.39552C10.8715 2.14752 11.0859 1.7952 11.1735 1.71744" fill="#0055A6"/>
<path d="M76.7407 11.9798C76.7157 11.2873 76.4048 10.6322 75.8757 10.1572C75.3466 9.68214 74.6421 9.42564 73.9156 9.44352C73.555 9.43136 73.1955 9.48751 72.8578 9.60872C72.5202 9.72993 72.2111 9.9138 71.9484 10.1497C71.6858 10.3856 71.4748 10.6688 71.3277 10.9829C71.1806 11.2971 71.1004 11.6359 71.0915 11.9798C71.1002 12.3239 71.1804 12.6628 71.3274 12.9771C71.4745 13.2913 71.6854 13.5746 71.9481 13.8106C72.2107 14.0466 72.5199 14.2306 72.8576 14.3518C73.1954 14.4731 73.555 14.5293 73.9156 14.5171C74.6423 14.535 75.3469 14.2784 75.8761 13.8031C76.4052 13.3279 76.716 12.6726 76.7407 11.9798Z" fill="#EB3E16"/>
</g>
<defs>
<clipPath id="clip0_281_153">
<rect width="129" height="24" fill="white"/>
</clipPath>
</defs>
</svg>
