<svg width="64" height="64" viewBox="0 0 64 64" fill="none" xmlns="http://www.w3.org/2000/svg">
<g filter="url(#filter0_d_281_346)">
<path d="M8 24C8 15.1634 15.1634 8 24 8H40C48.8366 8 56 15.1634 56 24V40C56 48.8366 48.8366 56 40 56H24C15.1634 56 8 48.8366 8 40V24Z" fill="white"/>
<path d="M36.692 20.4718C36.8865 20.3373 37.422 20.0243 39.4645 20.0243H40L39.8535 18.5452H39.4645C38.9782 18.5452 37.8111 18.5904 36.2057 18.6797H34.2605C33.8222 18.6797 33.0441 18.6797 31.7797 18.6345C30.806 18.5893 29.9306 18.5452 29.1045 18.5452L28.672 18.5L28.7635 20.0232H29.1525C31.195 20.0232 31.7305 20.3362 31.877 20.4707C31.9262 20.5159 32.2203 20.8289 32.2203 22.3973L31.9285 40.5832C31.9652 41.2007 31.7947 41.8132 31.4422 42.3301C31.2716 42.6065 31.0167 42.8256 30.7122 42.9573C30.7122 42.7776 30.7614 42.5991 30.7614 42.4194C30.7653 42.0086 30.681 41.6015 30.5136 41.2236C30.3462 40.8457 30.0994 40.5054 29.7887 40.2239C29.1465 39.6309 28.2948 39.2946 27.4053 39.2826C26.5333 39.2722 25.6911 39.588 25.056 40.1636C24.4209 40.7392 24.0423 41.5297 24 42.3687C24.0171 43.1515 24.335 43.9003 24.8922 44.4703C25.4493 45.0404 26.2061 45.3911 27.0162 45.4548V45.5H27.5025C28.5336 45.4998 29.5559 45.3175 30.5188 44.9621C31.6865 44.561 32.7492 43.9189 33.6323 43.0807C34.6107 42.164 35.3431 41.0319 35.7663 39.7819C35.9998 38.7822 36.115 37.7602 36.1096 36.7355L36.3521 22.3984C36.3521 20.9656 36.5959 20.5611 36.6954 20.4718" fill="#0055A6"/>
</g>
<defs>
<filter id="filter0_d_281_346" x="0" y="0" width="64" height="64" filterUnits="userSpaceOnUse" color-interpolation-filters="sRGB">
<feFlood flood-opacity="0" result="BackgroundImageFix"/>
<feColorMatrix in="SourceAlpha" type="matrix" values="0 0 0 0 0 0 0 0 0 0 0 0 0 0 0 0 0 0 127 0" result="hardAlpha"/>
<feOffset/>
<feGaussianBlur stdDeviation="4"/>
<feComposite in2="hardAlpha" operator="out"/>
<feColorMatrix type="matrix" values="0 0 0 0 0 0 0 0 0 0 0 0 0 0 0 0 0 0 0.16 0"/>
<feBlend mode="normal" in2="BackgroundImageFix" result="effect1_dropShadow_281_346"/>
<feBlend mode="normal" in="SourceGraphic" in2="effect1_dropShadow_281_346" result="shape"/>
</filter>
</defs>
</svg>
